<svg xmlns="http://www.w3.org/2000/svg" xmlns:xlink="http://www.w3.org/1999/xlink" version="1.1" x="0px" y="0px" viewBox="0 0 100 125" enable-background="new 0 0 100 100" xml:space="preserve"><path d="M96.191,24.441v4.592h-2.029v3.311h-4.379V25.22h4.379v3.386h1.602v-4.165c0-0.957-0.272-1.661-0.809-2.093  c-0.953-0.766-2.441-0.449-2.456-0.446l-0.046,0.005h-4.995c0.2,1.118,0.304,2.365,0.367,3.78c0.285,6.408,0,51.263,0,51.263  s0.142,2.421-1.566,2.563c-0.464,0.039-2.545,0.392-5.932,0.881c-0.754,1.777-1.035,2.17-1.98,2.461  c-1.851,0.57-3.964-1.659-3.964-1.659l0.48-0.061c-10.054,1.285-25.773,2.823-44.139,2.65c-1.139,0-5.411-3.275-6.977-3.275  c-0.104,0-0.204-0.006-0.301-0.017c-0.299,0.663-1.043,1.86-2.404,1.441c-1.807-0.556-3.745-4.036-3.969-9.665l-5.748-5.748  c-0.274,1.336-0.966,3.199-2.695,3.185c-2.212-0.018-2.849-3.054-3.005-9.81c-0.415-0.114-0.958-0.683-0.958-2.881  c0-3.56,0-17.23,0-17.23s-0.57-4.699,3.702-8.117s14.809-12.673,14.809-12.673s4.414-5.838,13.385-7.689  c2.58-0.532,5.917-1.146,9.734-1.593v1.593l29.71,1.994v-1.286c1.148,0.384,2.289,0.809,3.418,1.286  c5.239,2.245,7.186,4.49,7.952,8.182h5.055c0.218-0.044,1.74-0.31,2.791,0.535C95.865,22.532,96.191,23.348,96.191,24.441z   M32.717,38.93c0.285,5.269,5.696,5.553,5.696,5.553s12.389,0.285,18.512,0s5.126-4.414,5.126-4.414s-0.081-7.405,0-13.385  c0.06-4.45-4.414-4.99-4.414-4.99s-11.819,0.148-17.8,0.006c-5.981-0.142-7.12,2.278-7.12,7.832  C32.717,29.532,32.433,33.661,32.717,38.93z M63.333,38.645c0.142,4.414,2.421,5.981,5.126,5.965c2.706-0.016,9.113,0.016,13.101,0  c3.987-0.016,4.841-1.693,5.126-3.971c0.285-2.278,0.285-7.405,0-11.392c-0.285-3.987-1.424-5.981-4.984-6.123  c0,0-8.259-0.57-12.958-0.854c-4.699-0.285-5.269,1.139-5.411,4.699C63.333,26.969,63.19,34.231,63.333,38.645z M41.689,52.6  c-1.494,0-2.706,1.211-2.706,2.706c0,1.494,1.211,2.706,2.706,2.706s2.706-1.211,2.706-2.706C44.394,53.811,43.183,52.6,41.689,52.6  z M82.556,51.319c-1.18,0-2.136,1.211-2.136,2.706c0,1.494,0.956,2.706,2.136,2.706c1.18,0,2.136-1.211,2.136-2.706  C84.692,52.53,83.736,51.319,82.556,51.319z M48.808,76.665c-1.101,0-1.994,0.956-1.994,2.136c0,1.18,0.893,2.136,1.994,2.136  c1.101,0,1.994-0.956,1.994-2.136C50.802,77.621,49.909,76.665,48.808,76.665z M77.857,74.529c-1.022,0-1.851,0.956-1.851,2.136  c0,1.18,0.829,2.136,1.851,2.136s1.851-0.956,1.851-2.136C79.708,75.486,78.88,74.529,77.857,74.529z M38.153,22.299l0.236-0.356  c-0.2-0.133-4.935-3.238-9.619-3.374l-0.068-0.054l-0.134,0.06c-0.194,0.087-0.517,0.232-0.099,7.982  c-0.311-0.023-0.594-0.028-0.841-0.026v-3.752h-5.553v7.963h5.553v-3.784c0.299-0.003,0.659,0.007,1.047,0.045l0.248,0.025  l-0.014-0.249c-0.328-5.986-0.208-7.434-0.128-7.782C33.335,19.14,38.105,22.267,38.153,22.299z M85.659,64.176  c0-1.463-1.427-2.6-3.188-2.541l-40.869,1.368c-1.761,0.059-3.188,1.292-3.188,2.755l0,0c0,1.463,1.427,2.6,3.188,2.541  l40.869-1.368C84.231,66.872,85.659,65.639,85.659,64.176L85.659,64.176z"/></svg>
