<svg xmlns="http://www.w3.org/2000/svg" xmlns:xlink="http://www.w3.org/1999/xlink" version="1.1" x="0px" y="0px" viewBox="0 0 100 125" enable-background="new 0 0 100 100" xml:space="preserve"><g><path d="M49.758,96.396c-6.229,0-12.614-0.613-18.98-1.823c-3.299-0.631-6.162-2.542-8.004-5.308   c-7.743-2.188-12.646-4.559-13.199-4.831c-2.928-1.456-4.837-4.387-5.016-7.675c-0.035-0.25-0.069-0.529-0.069-0.852V39.939   c0-3.717,2.951-6.757,6.633-6.9V14.547c0-3.236,2.074-5.521,6.164-6.792c0.677-0.19,15.111-4.151,32.948-4.151   c17.846,0,31.77,3.968,32.354,4.137c1.589,0.51,6.209,1.996,6.209,6.806v18.491c3.721,0.101,6.717,3.158,6.717,6.901v35.969   c0,0.518-0.069,1.05-0.211,1.622c-0.415,3.009-2.271,5.587-4.993,6.921c-0.213,0.105-5.229,2.554-13.201,4.797   c-1.835,2.727-4.67,4.615-7.926,5.246C62.67,95.756,56.135,96.396,49.758,96.396z M11.393,38.034c-1.05,0-1.904,0.854-1.904,1.905   v35.968c0.003,0.062,0.017,0.132,0.028,0.203l0.031,0.313c0.06,1.519,0.92,2.871,2.246,3.53c0.525,0.259,5.413,2.621,13.258,4.755   l1.027,0.279l0.511,0.935c1.069,1.958,2.937,3.32,5.124,3.739c6.056,1.15,12.127,1.734,18.043,1.734   c6.059,0,12.273-0.609,18.474-1.81c2.159-0.419,4.009-1.765,5.074-3.694l0.513-0.927l1.022-0.277   c8.066-2.186,13.057-4.622,13.265-4.725c1.249-0.611,2.091-1.807,2.255-3.198l0.069-0.361c0.057-0.209,0.084-0.371,0.084-0.495   V39.939c0-1.049-0.855-1.903-1.906-1.903c-1.05,0-1.903,0.854-1.903,1.905v31.891l-1.897,0.646   c-0.106,0.035-0.216,0.063-0.319,0.113c-0.796,0.376-4.907,2.251-11.313,4.022l-1.137,0.314l-0.966-0.677   c-1.665-1.168-3.677-1.597-5.662-1.216c-10.424,2.023-20.541,2.043-30.928,0.065c-1.963-0.373-3.957,0.055-5.607,1.2l-0.963,0.669   l-1.13-0.313c-7.027-1.948-11.293-4.038-11.336-4.06c-0.087-0.041-0.178-0.064-0.268-0.095l-1.88-0.644V39.939   C13.297,38.888,12.443,38.034,11.393,38.034z M33.084,69.969c0.774,0,1.553,0.072,2.33,0.219   c9.756,1.857,19.256,1.839,29.045-0.061c2.924-0.563,5.875-0.079,8.437,1.369c4.412-1.281,7.525-2.567,8.809-3.132V39.94   c0-1.938,0.803-3.692,2.093-4.948V14.547c0-0.464,0-1.167-2.669-2.025c-0.064-0.018-13.792-3.918-30.894-3.918   c-17.124,0-31.395,3.907-31.537,3.947c-2.575,0.801-2.575,1.579-2.575,1.996v20.365c1.338,1.26,2.175,3.047,2.175,5.027v28.466   c1.266,0.562,4.363,1.852,8.772,3.135C28.923,70.504,30.982,69.969,33.084,69.969z"/></g></svg>
